<svg width="16" height="16" viewBox="0 0 16 16" fill="none" xmlns="http://www.w3.org/2000/svg">
<path d="M12.2 3.8068C12.1383 3.745 12.065 3.69597 11.9844 3.66252C11.9038 3.62907 11.8173 3.61185 11.73 3.61185C11.6427 3.61185 11.5562 3.62907 11.4756 3.66252C11.395 3.69597 11.3217 3.745 11.26 3.8068L8.00029 7.05988L4.74055 3.80013C4.67883 3.73842 4.60556 3.68946 4.52493 3.65606C4.44429 3.62266 4.35787 3.60547 4.27059 3.60547C4.18331 3.60547 4.09688 3.62266 4.01624 3.65606C3.93561 3.68946 3.86234 3.73842 3.80062 3.80013C3.73891 3.86185 3.68995 3.93512 3.65655 4.01575C3.62315 4.09639 3.60596 4.18282 3.60596 4.2701C3.60596 4.35738 3.62315 4.4438 3.65655 4.52444C3.68995 4.60508 3.73891 4.67834 3.80062 4.74006L7.06037 7.99981L3.80062 11.2596C3.73891 11.3213 3.68995 11.3945 3.65655 11.4752C3.62315 11.5558 3.60596 11.6422 3.60596 11.7295C3.60596 11.8168 3.62315 11.9032 3.65655 11.9839C3.68995 12.0645 3.73891 12.1378 3.80062 12.1995C3.86234 12.2612 3.93561 12.3102 4.01624 12.3436C4.09688 12.377 4.18331 12.3941 4.27059 12.3941C4.35787 12.3941 4.44429 12.377 4.52493 12.3436C4.60556 12.3102 4.67883 12.2612 4.74055 12.1995L8.00029 8.93973L11.26 12.1995C11.3218 12.2612 11.395 12.3102 11.4757 12.3436C11.5563 12.377 11.6427 12.3941 11.73 12.3941C11.8173 12.3941 11.9037 12.377 11.9843 12.3436C12.065 12.3102 12.1383 12.2612 12.2 12.1995C12.2617 12.1378 12.3106 12.0645 12.344 11.9839C12.3774 11.9032 12.3946 11.8168 12.3946 11.7295C12.3946 11.6422 12.3774 11.5558 12.344 11.4752C12.3106 11.3945 12.2617 11.3213 12.2 11.2596L8.94022 7.99981L12.2 4.74006C12.4533 4.48675 12.4533 4.06011 12.2 3.8068Z" fill="#06162E"/>
</svg>
