<svg width="24" height="24" viewBox="0 0 24 24" fill="none" xmlns="http://www.w3.org/2000/svg">
<g opacity="0.6">
<path d="M15.8411 12.1098C17.3179 12.8078 18.5771 13.8943 19.4839 15.2529C20.3907 16.6116 20.911 18.1912 20.9891 19.8228C20.9994 19.9723 20.9797 20.1223 20.9313 20.2641C20.8828 20.4058 20.8065 20.5365 20.7068 20.6484C20.6072 20.7603 20.4862 20.8511 20.3509 20.9156C20.2157 20.9801 20.0689 21.0169 19.9193 21.0239C19.7696 21.0309 19.6201 21.0079 19.4794 20.9563C19.3387 20.9047 19.2098 20.8256 19.1001 20.7235C18.9905 20.6214 18.9023 20.4984 18.8408 20.3617C18.7794 20.2251 18.7458 20.0776 18.7421 19.9278C18.6603 18.1946 17.9143 16.5594 16.6588 15.3618C15.4032 14.1641 13.7347 13.4959 11.9996 13.4959C10.2645 13.4959 8.59597 14.1641 7.34046 15.3618C6.08496 16.5594 5.33888 18.1946 5.25711 19.9278C5.2369 20.2212 5.10263 20.495 4.88304 20.6906C4.66345 20.8862 4.376 20.988 4.08225 20.9743C3.78851 20.9605 3.51181 20.8323 3.31142 20.6171C3.11102 20.4019 3.00287 20.1168 3.01011 19.8228C3.0879 18.1913 3.6079 16.6117 4.51446 15.2531C5.42102 13.8944 6.67999 12.8079 8.15661 12.1098C7.21013 11.3203 6.5298 10.2585 6.20819 9.06867C5.88657 7.87886 5.93926 6.61885 6.3591 5.46005C6.77895 4.30125 7.54556 3.29991 8.55465 2.59223C9.56375 1.88455 10.7663 1.50488 11.9989 1.50488C13.2314 1.50488 14.434 1.88455 15.4431 2.59223C16.4522 3.29991 17.2188 4.30125 17.6386 5.46005C18.0585 6.61885 18.1111 7.87886 17.7895 9.06867C17.4679 10.2585 16.7876 11.3203 15.8411 12.1098ZM15.7496 7.5003C15.7496 6.50574 15.3545 5.55191 14.6513 4.84865C13.948 4.14539 12.9942 3.7503 11.9996 3.7503C11.005 3.7503 10.0512 4.14539 9.34796 4.84865C8.64469 5.55191 8.24961 6.50574 8.24961 7.5003C8.24961 8.49487 8.64469 9.44869 9.34796 10.152C10.0512 10.8552 11.005 11.2503 11.9996 11.2503C12.9942 11.2503 13.948 10.8552 14.6513 10.152C15.3545 9.44869 15.7496 8.49487 15.7496 7.5003Z" fill="#06162E"/>
</g>
</svg>
